<?xml version="1.0" standalone="no"?>
<!DOCTYPE svg PUBLIC "-//W3C//DTD SVG 20010904//EN"
 "http://www.w3.org/TR/2001/REC-SVG-20010904/DTD/svg10.dtd">
<svg version="1.0" xmlns="http://www.w3.org/2000/svg"
 width="2688.000000pt" height="1536.000000pt" viewBox="0 0 2688.000000 1536.000000"
 preserveAspectRatio="xMidYMid meet">

<g transform="translate(0.000000,1536.000000) scale(0.100000,-0.100000)"
fill="#000000" stroke="none">
<path d="M8356 13454 c-9 -8 -16 -20 -16 -26 0 -15 -123 -321 -180 -448 -206
-456 -474 -928 -839 -1480 -101 -152 -282 -416 -351 -511 -190 -264 -432 -591
-789 -1069 -420 -563 -539 -729 -743 -1040 -275 -418 -445 -734 -586 -1090
-230 -581 -335 -1262 -292 -1889 8 -121 16 -181 51 -406 15 -91 71 -323 110
-450 215 -699 621 -1315 1202 -1822 338 -295 766 -549 1143 -678 43 -15 93
-33 109 -40 51 -22 274 -83 395 -109 512 -109 1078 -113 1575 -11 66 14 124
28 295 74 166 44 515 183 655 261 121 67 159 89 239 137 172 104 342 229 523
386 105 90 373 365 460 472 118 144 313 418 330 462 4 9 23 44 43 78 121 200
242 470 329 735 171 525 234 1191 161 1710 -80 573 -206 997 -435 1464 -116
235 -336 611 -480 816 -17 25 -69 99 -115 165 -167 240 -292 409 -675 920
-594 792 -718 964 -990 1370 -380 568 -644 1029 -852 1485 -72 158 -173 401
-193 465 -25 80 -51 102 -84 69z m662 -5376 l2 -588 603 -2 602 -3 0 -625 0
-625 -602 -3 -603 -2 -2 -588 -3 -587 -627 -3 -628 -2 -1 237 c-1 131 -1 374
1 540 1 166 -1 324 -5 352 l-7 51 -601 2 -602 3 -3 619 c-2 489 0 621 10 628
7 4 282 8 612 8 l599 0 -3 228 c-2 125 -3 390 -2 590 l2 362 628 -2 627 -3 3
-587z m1631 -1862 c2 -186 0 -228 -12 -252 -9 -16 -95 -108 -192 -204 -97 -96
-190 -192 -207 -212 l-30 -38 -264 0 -264 0 -234 -237 -235 -238 -1 -195 0
-196 -333 -338 -334 -338 -6 -290 c-3 -160 -9 -293 -12 -296 -16 -16 -20 36
-23 296 l-3 287 338 340 338 340 5 203 5 203 246 244 246 245 258 0 258 0 209
207 c114 114 211 217 215 228 9 26 10 64 12 283 0 100 4 182 9 182 4 0 9 -101
11 -224z m-4499 7 l0 -208 233 -237 232 -238 241 0 240 0 201 -202 c110 -112
222 -227 247 -256 l47 -53 -7 -180 -7 -180 160 -162 c89 -89 232 -235 318
-324 87 -90 162 -163 166 -163 5 0 9 67 9 149 l0 149 -26 19 c-31 23 -35 64
-9 93 22 25 46 25 75 2 29 -24 30 -70 1 -93 -21 -17 -21 -19 -21 -543 0 -344
-3 -526 -10 -526 -6 0 -10 123 -10 350 l0 350 -157 159 c-87 88 -240 242 -340
343 l-182 184 0 193 1 193 -154 156 c-85 87 -187 192 -228 235 l-73 77 -244 0
-245 0 -26 28 c-15 15 -101 104 -192 198 -91 93 -186 195 -212 225 l-48 56 0
207 c0 131 4 206 10 206 6 0 10 -76 10 -207z m-468 90 c22 -20 23 -37 3 -56
-35 -36 -83 17 -49 54 21 23 23 23 46 2z m1169 -219 c11 -13 9 -14 -12 -9 -29
7 -55 -16 -45 -40 7 -18 47 -20 65 -2 10 10 11 9 6 -5 -10 -26 -44 -32 -66
-12 -23 21 -24 47 -3 68 20 20 38 20 55 0z m-891 -134 c0 -4 -7 -13 -15 -20
-18 -15 -20 -56 -2 -63 9 -4 9 -6 -1 -6 -25 -2 -36 65 -22 139 1 7 40 -41 40
-50z m4189 26 l22 -24 -27 -27 -27 -27 -25 25 c-24 25 -25 27 -8 51 21 32 36
33 65 2z m696 -21 c32 -31 32 -59 0 -91 -22 -22 -31 -25 -66 -19 l-39 7 -173
-174 c-95 -95 -268 -271 -383 -391 l-209 -217 -166 0 -165 0 -21 -28 c-16 -22
-22 -48 -25 -118 l-5 -89 -251 -254 -252 -255 0 -65 c0 -36 -5 -73 -10 -81 -7
-10 -10 14 -10 78 l0 93 251 252 251 252 -5 79 c-4 59 -9 82 -22 88 -40 23
-36 106 6 128 26 15 65 2 84 -26 15 -24 18 -24 174 -24 l158 0 149 153 c82 83
256 258 387 388 162 160 238 242 237 255 -6 51 0 63 33 73 46 13 46 13 72 -14z
m-4841 -11 c9 -8 16 -20 16 -25 0 -11 -49 22 -50 34 0 12 18 8 34 -9z m1416
-34 c0 -5 -4 -10 -10 -10 -5 0 -10 5 -10 10 0 6 5 10 10 10 6 0 10 -4 10 -10z
m4157 -74 c-2 -6 -16 -12 -30 -14 -23 -3 -27 1 -27 20 0 13 6 30 13 37 10 10
16 8 30 -10 10 -12 16 -27 14 -33z m-4127 33 c0 -6 -7 -8 -16 -5 -10 4 -25 -1
-35 -10 -16 -14 -19 -15 -19 -2 0 8 3 18 7 21 11 11 63 8 63 -4z m-864 -552
c99 -101 191 -191 205 -200 19 -14 49 -17 169 -17 l146 0 34 35 c40 41 62 44
95 10 34 -33 34 -85 0 -121 -22 -24 -25 -36 -25 -102 l0 -74 205 -205 c113
-113 205 -209 205 -214 0 -5 -4 -9 -9 -9 -6 0 -104 93 -219 208 l-210 207 -5
88 c-4 80 -7 91 -33 118 l-28 29 -162 0 -163 0 -88 88 c-121 119 -339 347
-448 468 l-90 99 120 -112 c66 -61 201 -194 301 -296z m4414 323 c0 -5 -5 -10
-11 -10 -5 0 -7 5 -4 10 3 6 8 10 11 10 2 0 4 -4 4 -10z m-3552 -77 c35 -30
33 -85 -3 -101 -34 -16 -38 -15 -63 8 -28 26 -28 57 0 87 26 28 39 29 66 6z
m1944 -20 c26 -23 23 -59 -7 -79 -23 -15 -27 -15 -50 0 -44 29 -28 95 24 96 8
0 23 -7 33 -17z m-3173 -115 c59 -57 131 -123 161 -148 30 -25 62 -53 72 -62
19 -19 24 -38 10 -38 -11 0 -369 349 -358 350 6 0 57 -46 115 -102z m3717 -85
c-3 -38 -6 -71 -6 -75 0 -5 -6 -8 -14 -8 -10 0 -15 19 -18 68 -6 77 -4 82 24
82 19 0 20 -4 14 -67z m34 26 c0 -16 -4 -29 -10 -29 -5 0 -10 16 -10 36 0 21
4 33 10 29 6 -3 10 -19 10 -36z m524 -20 c-16 -17 -38 -35 -49 -40 -11 -6 0 8
25 30 53 49 65 53 24 10z m-4556 -26 c-4 -33 -24 -41 -33 -14 -8 25 1 41 21
41 11 0 14 -8 12 -27z m4482 -38 c0 -2 -10 -9 -22 -15 -22 -11 -22 -10 -4 4
21 17 26 19 26 11z m-3800 -393 c179 -181 355 -362 392 -403 36 -41 72 -80 80
-88 7 -8 -16 10 -52 40 -36 30 -223 213 -416 407 l-350 352 -134 0 -134 0 -77
-75 c-42 -41 -85 -75 -95 -75 -16 0 -15 3 6 18 14 9 57 50 97 91 l71 73 143
-5 144 -5 325 -330z m4200 285 c60 -69 65 -85 8 -25 l-55 58 -143 -4 -143 -4
-143 -149 c-78 -81 -245 -249 -369 -373 -125 -124 -368 -366 -541 -539 l-314
-314 0 -137 c0 -124 2 -139 20 -155 25 -23 26 -77 3 -101 -10 -9 -23 -38 -29
-63 l-12 -46 -1 42 c-1 32 -7 46 -26 60 -14 10 -28 32 -31 50 -5 26 -1 35 20
54 26 22 26 24 26 161 l0 139 36 37 c148 153 1242 1250 1297 1300 l68 63 147
-7 147 -7 35 -40z m-731 -174 c-207 -214 -670 -682 -920 -930 l-247 -245 -7
-224 c-4 -123 -11 -224 -16 -224 -5 0 -9 100 -9 223 l0 222 651 654 c357 359
652 651 656 647 3 -3 -45 -59 -108 -123z m-3069 -308 c206 -207 399 -400 430
-428 31 -29 140 -139 243 -246 l187 -194 -1 -281 c-1 -155 -4 -294 -8 -311
-10 -43 -21 176 -21 407 l0 188 -122 126 c-68 70 -161 165 -208 213 -93 93
-677 666 -707 692 -13 12 -165 172 -223 236 -3 3 9 -2 25 -10 17 -9 199 -185
405 -392z m2736 148 c-3 -59 -11 -112 -16 -117 -7 -7 -10 4 -10 30 0 23 -3 75
-6 117 -7 76 -6 77 16 77 23 0 23 0 16 -107z m-2746 36 c0 -42 -3 -49 -20 -49
-17 0 -20 7 -20 49 0 30 5 51 13 54 21 8 27 -3 27 -54z m-887 -95 l111 -116
106 4 c99 3 109 5 139 30 26 23 39 27 68 22 34 -5 72 -36 73 -60 0 -18 48 -75
165 -198 63 -67 152 -161 199 -210 l84 -89 108 -4 c60 -2 113 -8 117 -12 11
-11 -127 -20 -188 -12 -50 6 -51 7 -254 216 -111 116 -214 216 -227 223 -16 8
-30 9 -42 4 -27 -15 -80 1 -119 36 -30 26 -131 34 -420 33 -141 -1 -223 3
-223 9 0 6 71 10 190 10 105 0 190 3 190 7 0 3 -44 51 -97 105 l-97 98 -156 2
c-175 1 -139 14 48 16 l113 2 112 -116z m4637 102 c0 -2 -7 -7 -16 -10 -8 -3
-12 -2 -9 4 6 10 25 14 25 6z m-2829 -146 c33 0 40 -4 45 -24 3 -14 2 -48 -3
-78 l-8 -53 -50 0 c-88 -1 -95 5 -95 80 0 59 2 67 23 75 12 5 28 7 35 4 8 -2
31 -4 53 -4z m1019 -10 c-20 -13 -40 -13 -40 0 0 6 12 10 28 10 21 0 24 -2 12
-10z m1358 -36 c48 -21 201 -31 230 -15 18 10 22 9 22 -3 0 -15 -22 -20 -152
-31 -36 -3 -86 -14 -110 -24 -23 -11 -64 -22 -91 -26 -28 -5 -61 -18 -82 -35
-61 -48 -351 -334 -364 -359 -16 -29 -34 -14 -29 25 3 31 28 46 28 18 0 -14 7
-10 29 16 16 19 98 105 183 191 84 86 162 173 173 195 11 21 24 45 29 52 12
17 90 15 134 -4z m-4597 -141 l32 -27 397 3 398 3 115 -119 c216 -223 277
-288 277 -297 0 -5 -2 -7 -5 -5 -2 2 -91 90 -197 196 l-193 192 -400 7 -400 6
-17 -31 c-31 -57 -108 -32 -108 35 0 23 7 38 22 48 31 22 41 20 79 -11z m5438
7 c4 0 13 -12 20 -26 17 -39 -4 -78 -46 -82 -27 -3 -36 2 -52 29 -19 30 -19
33 -3 55 18 25 39 34 60 28 8 -2 17 -4 21 -4z m-3274 -30 c0 -16 -6 -26 -18
-28 -19 -4 -32 20 -23 44 9 25 41 13 41 -16z m-1042 -46 c-1 -21 -2 -40 -2
-42 -1 -2 -8 3 -16 11 -10 11 -13 25 -9 47 9 43 29 32 27 -16z m3715 31 c1 -1
-69 -5 -155 -9 l-158 -7 -242 -242 -243 -243 0 -184 c0 -123 -4 -180 -10 -170
-5 8 -10 94 -10 190 l0 175 248 251 247 252 160 -5 c88 -3 161 -7 163 -8z
m-1973 -90 c14 -13 25 -31 25 -40 0 -21 -36 -55 -60 -55 -23 0 -60 33 -60 54
0 20 39 66 56 66 8 0 26 -11 39 -25z m-1148 -45 c-1 -16 -5 -30 -9 -30 -5 0
-8 3 -8 8 0 4 -3 17 -6 30 -5 16 -2 22 9 22 12 0 16 -8 14 -30z m-1260 -17
c15 -22 22 -24 77 -22 34 1 87 2 119 1 57 -2 60 -3 115 -60 31 -31 137 -139
234 -238 l178 -181 -4 -122 c-2 -67 -6 -124 -10 -128 -3 -3 -6 50 -6 118 l0
124 -232 232 -233 233 -110 0 c-98 0 -112 -2 -128 -20 -33 -38 -107 -15 -107
34 1 61 73 81 107 29z m1344 27 c6 0 9 -12 7 -27 -2 -22 -8 -28 -28 -28 -16 0
-26 6 -28 18 -6 28 6 50 24 43 9 -3 20 -6 25 -6z m1830 -33 c-8 -8 -11 -5 -11
9 0 27 14 41 18 19 2 -9 -1 -22 -7 -28z m1349 12 c13 -23 5 -70 -13 -81 -20
-13 -43 -9 -65 11 -24 20 -28 42 -12 72 15 27 75 26 90 -2z m-3709 -26 c-9
-16 -10 -14 -11 12 0 21 3 26 11 18 8 -8 8 -16 0 -30z m979 8 c0 -6 -4 -13
-10 -16 -5 -3 -10 1 -10 9 0 9 5 16 10 16 6 0 10 -4 10 -9z m2465 -10 l50 -8
-42 -2 c-34 -1 -48 -7 -69 -30 -14 -16 -40 -35 -57 -42 -17 -7 -44 -27 -60
-44 -18 -19 -25 -23 -19 -10 6 11 19 28 30 38 11 10 23 35 27 55 10 52 23 65
59 57 17 -3 54 -10 81 -14z m-678 -33 c-3 -7 -5 -2 -5 12 0 14 2 19 5 13 2 -7
2 -19 0 -25z m760 26 c-3 -3 -12 -4 -19 -1 -8 3 -5 6 6 6 11 1 17 -2 13 -5z
m-3316 -31 c13 -16 12 -17 -3 -4 -10 7 -18 15 -18 17 0 8 8 3 21 -13z m290
-281 l196 -200 5 -132 c5 -116 8 -134 27 -154 27 -29 27 -57 -4 -114 -22 -41
-25 -59 -25 -149 0 -57 -4 -103 -9 -103 -5 0 -11 54 -13 119 -3 105 -6 122
-24 143 -36 39 -39 66 -11 96 24 25 25 34 29 157 l3 130 -155 160 c-85 88
-161 164 -170 168 -8 5 -30 29 -48 53 -59 81 -2 31 199 -174z m285 100 c23
-26 40 -49 37 -52 -2 -3 -22 14 -43 38 -33 36 -44 42 -79 42 -31 0 -41 4 -41
16 0 14 7 15 42 10 34 -6 51 -17 84 -54z m2344 -49 c-170 -178 -200 -206 -207
-199 -8 7 268 286 283 286 4 0 -30 -39 -76 -87z m-1091 40 c-22 -28 -40 -46
-99 -98 -59 -53 -40 -28 49 68 43 45 79 67 50 30z m-2001 -66 c12 -13 25 -40
29 -60 9 -55 -8 -708 -18 -701 -5 3 -9 168 -9 368 l0 362 -30 29 c-16 16 -30
33 -30 37 0 13 31 -6 58 -35z m169 -447 c-4 -206 -7 -405 -7 -442 0 -38 -4
-68 -10 -68 -6 0 -10 162 -9 456 1 412 2 454 16 442 14 -11 15 -54 10 -388z
m313 294 c0 -15 -6 -24 -15 -24 -15 0 -21 40 -9 53 12 11 24 -3 24 -29z m2109
-97 c-2 -132 -17 -148 -18 -19 -1 73 3 111 9 107 6 -3 10 -43 9 -88z m-961 51
c-4 -46 -28 -49 -28 -4 0 26 4 36 16 36 11 0 14 -8 12 -32z m1233 -73 l-9 -50
-1 46 c0 25 2 49 6 52 11 12 12 3 4 -48z m-2391 -5 c0 -5 -2 -10 -4 -10 -3 0
-8 5 -11 10 -3 6 -1 10 4 10 6 0 11 -4 11 -10z m1310 -25 c0 -24 -5 -35 -15
-35 -15 0 -20 26 -9 54 11 28 24 17 24 -19z m-160 -5 c0 -5 -4 -10 -10 -10 -5
0 -10 5 -10 10 0 6 5 10 10 10 6 0 10 -4 10 -10z m-1142 -61 c-1 -13 -7 -23
-13 -22 -13 3 -18 30 -11 50 10 24 29 1 24 -28z m-833 -10 c14 -22 -3 -18 -26
7 -23 25 -23 26 -2 15 12 -6 25 -16 28 -22z m1983 -16 c-2 -17 -9 -28 -18 -28
-9 0 -16 11 -18 28 -3 22 1 27 18 27 17 0 21 -5 18 -27z m-2193 -50 c34 -38
33 -49 -12 -86 -20 -17 -23 -17 -52 -3 -50 26 -55 87 -9 106 36 14 46 12 73
-17z m222 -60 c-2 -16 -4 -3 -4 27 0 30 2 43 4 28 2 -16 2 -40 0 -55z m2920
25 c-2 -13 -4 -5 -4 17 -1 22 1 32 4 23 2 -10 2 -28 0 -40z m-2097 -8 c0 -20
-5 -30 -15 -30 -10 0 -15 10 -15 30 0 20 5 30 15 30 10 0 15 -10 15 -30z
m1148 -32 c-5 -34 -38 -37 -38 -4 0 20 5 26 21 26 15 0 20 -5 17 -22z m-1158
-54 c0 -8 -5 -12 -10 -9 -6 4 -8 11 -5 16 9 14 15 11 15 -7z m1304 -16 c5 -24
2 -37 -13 -52 -19 -18 -21 -18 -46 -2 -30 20 -32 61 -3 61 10 0 23 6 30 13 19
19 25 15 32 -20z m-146 -35 c-3 -30 -25 -42 -34 -19 -9 22 2 46 21 46 12 0 15
-8 13 -27z m-1132 -165 l29 -33 -32 29 c-18 17 -33 31 -33 33 0 8 8 1 36 -29z"/>
<path d="M22823 8724 c-2 -6 -3 -203 -1 -438 2 -234 0 -426 -5 -426 -4 0 -33
21 -65 47 -111 90 -248 133 -427 133 -135 0 -228 -21 -342 -79 -308 -154 -463
-439 -463 -851 0 -188 29 -317 105 -470 141 -283 376 -431 682 -431 207 0 344
53 470 178 40 40 74 73 76 73 3 0 7 -35 11 -77 4 -43 10 -88 13 -100 l5 -23
234 0 234 0 0 1235 0 1235 -222 1 c-123 0 -240 1 -262 2 -21 1 -41 -3 -43 -9z
m-268 -1089 c186 -49 275 -205 275 -485 0 -221 -30 -336 -111 -425 -72 -78
-139 -108 -253 -113 -119 -5 -185 18 -260 92 -99 96 -136 207 -136 411 -1 196
38 329 121 420 91 99 225 136 364 100z"/>
<path d="M16612 7668 c3 -1002 4 -1066 22 -1118 29 -87 64 -148 111 -195 90
-91 206 -125 421 -125 l134 0 0 189 c0 202 0 201 -51 201 -32 0 -89 60 -99
105 -6 23 -10 458 -10 1023 l0 982 -265 0 -266 0 3 -1062z"/>
<path d="M14380 7426 l0 -1166 621 0 c513 0 640 3 728 16 345 51 545 216 622
514 6 25 11 81 12 125 2 282 -134 483 -377 557 l-68 21 68 36 c94 49 183 135
222 213 62 121 77 275 42 412 -46 182 -172 318 -348 377 -155 51 -155 51 -859
56 l-663 4 0 -1165z m1231 728 c85 -40 125 -120 117 -238 -8 -114 -53 -182
-153 -228 -48 -22 -61 -23 -352 -26 l-303 -3 0 261 0 261 323 -3 c304 -3 325
-4 368 -24z m34 -919 c83 -27 136 -81 158 -161 36 -127 13 -238 -63 -315 -79
-79 -95 -82 -482 -87 l-338 -4 0 289 c0 160 3 293 7 297 4 4 154 6 333 4 289
-3 332 -6 385 -23z"/>
<path d="M18147 8025 c-160 -30 -326 -112 -444 -219 -116 -104 -213 -274 -255
-442 -29 -118 -31 -329 -5 -454 58 -269 217 -483 447 -600 241 -123 603 -133
861 -25 133 57 259 154 346 269 233 310 243 796 23 1120 -116 173 -274 281
-495 342 -85 23 -373 28 -478 9z m368 -417 c92 -48 148 -118 191 -238 36 -99
46 -307 20 -422 -52 -235 -195 -353 -407 -335 -163 14 -279 117 -332 295 -27
91 -29 308 -4 402 61 228 191 334 397 327 68 -3 95 -9 135 -29z"/>
<path d="M20170 8021 c-163 -35 -312 -110 -427 -215 -163 -149 -256 -351 -278
-606 -19 -218 53 -479 179 -646 181 -241 445 -354 796 -341 177 7 267 28 405
96 323 160 490 468 472 870 -7 160 -39 279 -110 414 -119 229 -315 373 -582
428 -120 25 -336 25 -455 0z m388 -415 c139 -71 216 -221 229 -446 14 -258
-86 -470 -250 -527 -75 -26 -214 -24 -287 5 -179 70 -278 316 -241 596 28 210
113 334 264 388 79 28 214 21 285 -16z"/>
</g>
</svg>
